<?xml version="1.0" encoding="utf-8"?>
<!-- Generator: Adobe Illustrator 16.0.0, SVG Export Plug-In . SVG Version: 6.00 Build 0)  -->
<!DOCTYPE svg PUBLIC "-//W3C//DTD SVG 1.1//EN" "http://www.w3.org/Graphics/SVG/1.1/DTD/svg11.dtd">
<svg version="1.1" id="图层_1" xmlns="http://www.w3.org/2000/svg" xmlns:xlink="http://www.w3.org/1999/xlink" x="0px" y="0px"
	 width="612px" height="612px" viewBox="0 90 612 612" enable-background="new 0 90 612 612" xml:space="preserve">
<title>资源 6</title>
<g id="图层_2">
	<g id="图层_1-2">
		<path fill="#01CCE7" d="M68,90h476c37.556,0,68,30.445,68,68v476c0,37.556-30.444,68-68,68H68c-37.555,0-68-30.444-68-68V158
			C0,120.445,30.445,90,68,90z"/>
		<path fill="#FFFFFF" d="M97.75,281.547c12.979,132.603,118.36,237.27,251.048,249.347c6.01,0.521,11.304-3.928,11.825-9.938
			c0.059-0.667,0.055-1.338-0.011-2.005C347.509,386.406,242.088,281.86,109.438,269.86c-5.809-0.646-11.042,3.539-11.688,9.348
			C97.664,279.985,97.664,280.77,97.75,281.547z"/>
		<path fill="#FFFFFF" d="M514.25,254.56c0.046-29.772-4.03-59.406-12.112-88.06c-1.588-5.893-7.652-9.382-13.545-7.794
			c-0.647,0.175-1.277,0.408-1.883,0.696c-84.595,40.85-147.618,116.004-173.103,206.423C348.71,408.25,370.332,460.198,375.7,515
			c0.162,1.723-0.101,3.46-0.766,5.058C462.242,459.884,514.342,360.595,514.25,254.56z"/>
		<path fill="#FFFFFF" d="M379.525,633.277h-29.41v-29.75h29.41V633.277z M353.133,630.26h23.375v-23.502h-23.375V630.26z"/>
		<path fill="#FFFFFF" d="M144.203,633.532H114.75v-29.75h29.41L144.203,633.532z M117.81,630.515h23.375v-23.332H117.81V630.515z"
			/>
		<polygon fill="#FFFFFF" points="203.32,633.277 173.442,633.277 173.442,603.825 176.757,603.825 176.757,630.005 203.32,630.005 
					"/>
		<path fill="#FFFFFF" d="M252.067,633.362h-19.635v-29.537h18.742l0.468,0.34l10.837,8.585v11.263L252.067,633.362z
			 M235.493,630.303h15.257l8.5-7.48v-8.5l-9.308-7.479h-14.45V630.303z"/>
		<polygon fill="#FFFFFF" points="317.475,603.825 317.475,616.702 294.482,616.702 294.482,603.825 291.21,603.825 291.21,633.235 
			294.482,633.235 294.482,619.933 317.475,619.933 317.475,633.235 320.747,633.235 320.747,603.825 		"/>
		<polygon fill="#FFFFFF" points="497.25,606.97 497.25,604.037 467.968,604.037 467.968,618.912 467.968,620.4 467.968,633.235 
			497.25,633.235 497.25,630.303 471.155,630.303 471.155,620.4 497.25,620.4 497.25,617.468 471.155,617.468 471.155,606.97 		"/>
		<polyline fill="#FFFFFF" points="424.065,621.378 426.487,603.825 437.112,603.825 439.237,633.192 436.008,633.192 
			434.265,607.31 429.378,607.31 425.68,633.235 424.15,633.235 423.938,633.235 422.407,633.235 418.753,607.31 413.822,607.31 
			412.08,633.192 408.85,633.192 410.975,603.825 421.6,603.825 424.065,621.378 		"/>
	</g>
</g>
</svg>
