<svg xmlns="http://www.w3.org/2000/svg" xmlns:xlink="http://www.w3.org/1999/xlink" viewBox="0 0 144 144"><defs><style>.cls-1{fill:url(#未命名的渐变_128);}.cls-2{fill:#fff;}</style><linearGradient id="未命名的渐变_128" x1="154.23" y1="107.98" x2="-10.23" y2="36.02" gradientUnits="userSpaceOnUse"><stop offset="0" stop-color="#0acde6"/><stop offset="1" stop-color="#2ad4e9"/></linearGradient></defs><title>资源 5</title><g id="图层_2" data-name="图层 2"><g id="图层_1-2" data-name="图层 1"><rect class="cls-1" width="144" height="144" rx="16" ry="16"/><path class="cls-2" d="M21,46.64A68,68,0,0,0,82.48,107.7a2.68,2.68,0,0,0,2.89-2.92,68,68,0,0,0-61.51-61A2.6,2.6,0,0,0,21,46.64Z"/><path class="cls-2" d="M123,42.3a79,79,0,0,0-3-21.53A2.71,2.71,0,0,0,116.25,19,80.34,80.34,0,0,0,73.9,69.55a67.61,67.61,0,0,1,15.17,36.51,2.6,2.6,0,0,1-.18,1.24A78.88,78.88,0,0,0,123,42.3Z"/><path class="cls-2" d="M89.3,128.14H82.38v-7H89.3Zm-6.21-.71h5.5V121.9h-5.5Z"/><path class="cls-2" d="M33.93,128.2H27v-7h6.92Zm-6.21-.71h5.5V122h-5.5Z"/><polygon class="cls-2" points="47.84 128.14 40.81 128.14 40.81 121.21 41.59 121.21 41.59 127.37 47.84 127.37 47.84 128.14"/><path class="cls-2" d="M59.31,128.16H54.69v-6.95H59.1l.11.08,2.55,2.06V126Zm-3.9-.72H59l2-1.76v-2l-2.19-1.76h-3.4Z"/><polygon class="cls-2" points="74.7 121.21 74.7 124.24 69.29 124.24 69.29 121.21 68.52 121.21 68.52 128.13 69.29 128.13 69.29 125 74.7 125 74.7 128.13 75.47 128.13 75.47 121.21 74.7 121.21"/><polygon class="cls-2" points="117 121.95 117 121.26 110.11 121.26 110.11 124.76 110.11 125.11 110.11 128.13 117 128.13 117 127.44 110.86 127.44 110.86 125.11 117 125.11 117 124.42 110.86 124.42 110.86 121.95 117 121.95"/><polyline class="cls-2" points="99.78 125.34 100.35 121.21 102.85 121.21 103.35 128.12 102.59 128.12 102.18 122.03 101.03 122.03 100.16 128.13 99.8 128.13 99.75 128.13 99.39 128.13 98.53 122.03 97.37 122.03 96.96 128.12 96.2 128.12 96.7 121.21 99.2 121.21 99.78 125.34"/></g></g></svg>