<svg xmlns="http://www.w3.org/2000/svg" viewBox="0 0 144 144"><defs><style>.cls-1{fill:#01cce7;}.cls-2{fill:#fff;}</style></defs><title>资源 6</title><g id="图层_2" data-name="图层 2"><g id="图层_1-2" data-name="图层 1"><rect class="cls-1" width="144" height="144" rx="16" ry="16"/><path class="cls-2" d="M23,45.07a65.3,65.3,0,0,0,59.07,58.67,2.57,2.57,0,0,0,2.78-2.81,65.3,65.3,0,0,0-59.1-58.61A2.49,2.49,0,0,0,23,45.07Z"/><path class="cls-2" d="M121,38.72A75.89,75.89,0,0,0,118.15,18a2.6,2.6,0,0,0-3.63-1.67A77.19,77.19,0,0,0,73.79,64.9,65,65,0,0,1,88.4,100a2.49,2.49,0,0,1-.18,1.19A75.79,75.79,0,0,0,121,38.72Z"/><path class="cls-2" d="M89.3,127.83H82.38v-7H89.3Zm-6.21-.71h5.5v-5.53h-5.5Z"/><path class="cls-2" d="M33.93,127.89H27v-7h6.92Zm-6.21-.71h5.5v-5.49h-5.5Z"/><polygon class="cls-2" points="47.84 127.83 40.81 127.83 40.81 120.9 41.59 120.9 41.59 127.06 47.84 127.06 47.84 127.83"/><path class="cls-2" d="M59.31,127.85H54.69V120.9H59.1l.11.08L61.76,123v2.65Zm-3.9-.72H59l2-1.76v-2l-2.19-1.76h-3.4Z"/><polygon class="cls-2" points="74.7 120.9 74.7 123.93 69.29 123.93 69.29 120.9 68.52 120.9 68.52 127.82 69.29 127.82 69.29 124.69 74.7 124.69 74.7 127.82 75.47 127.82 75.47 120.9 74.7 120.9"/><polygon class="cls-2" points="117 121.64 117 120.95 110.11 120.95 110.11 124.45 110.11 124.8 110.11 127.82 117 127.82 117 127.13 110.86 127.13 110.86 124.8 117 124.8 117 124.11 110.86 124.11 110.86 121.64 117 121.64"/><polyline class="cls-2" points="99.78 125.03 100.35 120.9 102.85 120.9 103.35 127.81 102.59 127.81 102.18 121.72 101.03 121.72 100.16 127.82 99.8 127.82 99.75 127.82 99.39 127.82 98.53 121.72 97.37 121.72 96.96 127.81 96.2 127.81 96.7 120.9 99.2 120.9 99.78 125.03"/></g></g></svg>