<svg xmlns="http://www.w3.org/2000/svg" viewBox="0 0 144 144"><defs><style>.cls-1{fill:#01cce7;}.cls-2{fill:#fff;}</style></defs><title>资源 1</title><g id="图层_2" data-name="图层 2"><g id="图层_1-2" data-name="图层 1"><rect class="cls-1" width="144" height="144" rx="16" ry="16"/><path class="cls-2" d="M13.1,44.37a78.51,78.51,0,0,0,71,70.54,3.09,3.09,0,0,0,3.34-3.37A78.51,78.51,0,0,0,16.39,41.07,3,3,0,0,0,13.1,44.37Z"/><path class="cls-2" d="M130.91,36.74a91.24,91.24,0,0,0-3.44-24.87,3.13,3.13,0,0,0-4.36-2A92.8,92.8,0,0,0,74.19,68.22a78.1,78.1,0,0,1,17.52,42.17,3,3,0,0,1-.21,1.43A91.12,91.12,0,0,0,130.91,36.74Z"/><path class="cls-2" d="M89.3,133.14H82.38v-7H89.3Zm-6.21-.71h5.5v-5.53h-5.5Z"/><path class="cls-2" d="M33.93,133.2H27v-7h6.92Zm-6.21-.71h5.5V127h-5.5Z"/><polygon class="cls-2" points="47.84 133.14 40.81 133.14 40.81 126.21 41.59 126.21 41.59 132.37 47.84 132.37 47.84 133.14"/><path class="cls-2" d="M59.31,133.16H54.69v-6.95H59.1l.11.08,2.55,2.06V131Zm-3.9-.72H59l2-1.76v-2l-2.19-1.76H55.41Z"/><polygon class="cls-2" points="74.7 126.21 74.7 129.24 69.29 129.24 69.29 126.21 68.52 126.21 68.52 133.13 69.29 133.13 69.29 130 74.7 130 74.7 133.13 75.47 133.13 75.47 126.21 74.7 126.21"/><polygon class="cls-2" points="117 126.95 117 126.26 110.11 126.26 110.11 129.76 110.11 130.11 110.11 133.13 117 133.13 117 132.44 110.86 132.44 110.86 130.11 117 130.11 117 129.42 110.86 129.42 110.86 126.95 117 126.95"/><polyline class="cls-2" points="99.78 130.34 100.35 126.21 102.85 126.21 103.35 133.12 102.59 133.12 102.18 127.03 101.03 127.03 100.16 133.13 99.8 133.13 99.75 133.13 99.39 133.13 98.53 127.03 97.37 127.03 96.96 133.12 96.2 133.12 96.7 126.21 99.2 126.21 99.78 130.34"/></g></g></svg>