<svg xmlns="http://www.w3.org/2000/svg" viewBox="0 0 144 144"><defs><style>.cls-1{fill:#01cce7;}.cls-2{fill:#fff;}</style></defs><title>资源 2</title><g id="图层_2" data-name="图层 2"><g id="图层_1-2" data-name="图层 1"><rect class="cls-1" width="144" height="144" rx="16" ry="16"/><path class="cls-2" d="M17,45.56A73.3,73.3,0,0,0,83.3,111.41a2.88,2.88,0,0,0,3.12-3.15A73.3,73.3,0,0,0,20.08,42.48,2.8,2.8,0,0,0,17,45.56Z"/><path class="cls-2" d="M127,38.43a85.18,85.18,0,0,0-3.21-23.22,2.92,2.92,0,0,0-4.07-1.87A86.64,86.64,0,0,0,74,67.82,72.92,72.92,0,0,1,90.4,107.19a2.8,2.8,0,0,1-.2,1.34A85.07,85.07,0,0,0,127,38.43Z"/><path class="cls-2" d="M89.3,130.14H82.38v-7H89.3Zm-6.21-.71h5.5V123.9h-5.5Z"/><path class="cls-2" d="M33.93,130.2H27v-7h6.92Zm-6.21-.71h5.5V124h-5.5Z"/><polygon class="cls-2" points="47.84 130.14 40.81 130.14 40.81 123.21 41.59 123.21 41.59 129.37 47.84 129.37 47.84 130.14"/><path class="cls-2" d="M59.31,130.16H54.69v-6.95H59.1l.11.08,2.55,2.06V128Zm-3.9-.72H59l2-1.76v-2l-2.19-1.76h-3.4Z"/><polygon class="cls-2" points="74.7 123.21 74.7 126.24 69.29 126.24 69.29 123.21 68.52 123.21 68.52 130.13 69.29 130.13 69.29 127 74.7 127 74.7 130.13 75.47 130.13 75.47 123.21 74.7 123.21"/><polygon class="cls-2" points="117 123.95 117 123.26 110.11 123.26 110.11 126.76 110.11 127.11 110.11 130.13 117 130.13 117 129.44 110.86 129.44 110.86 127.11 117 127.11 117 126.42 110.86 126.42 110.86 123.95 117 123.95"/><polyline class="cls-2" points="99.78 127.34 100.35 123.21 102.85 123.21 103.35 130.12 102.59 130.12 102.18 124.03 101.03 124.03 100.16 130.13 99.8 130.13 99.75 130.13 99.39 130.13 98.53 124.03 97.37 124.03 96.96 130.12 96.2 130.12 96.7 123.21 99.2 123.21 99.78 127.34"/></g></g></svg>